# xmcd
#
# Track frame offsets:
#	150
#	15252
#	30357
#	39805
#	49339
#	65289
#	80396
#	93372
#	105336
#	120426
#	133680
#	148476
#	163525
#	178188
#	191878
#	204316
#	216951
#
# Disc length: 3071 seconds
#
# Revision: 1
# Processed by: cddbd v1.5.2PL0 Copyright (c) Steve Scherf et al.
# Submitted via: audiograbber 1.83.01
#
DISCID=e10bfd11
DTITLE=Muddy Waters - Blues Archive_12_CD2
DYEAR=1940
DGENRE=Blues
TTITLE0=I Be Bound To Write To You (1942)
TTITLE1=You're Gonna Miss Me When I'm Gone (1942)
TTITLE2=You Got To Take Sick And Die Some Of These Days (1942)
TTITLE3=Why Don't You Live So God Can Use You (1942)
TTITLE4=Country Blues (1942)
TTITLE5=32-20 Blues (1942)
TTITLE6=Louisiana Blues (1950)
TTITLE7=Long Distance Call (1951)
TTITLE8=Honey Bee (1951)
TTITLE9=She Moves Me (1951)
TTITLE10=Still A Fool (1951)
TTITLE11=Standing Around Crying (1952)
TTITLE12=Baby Please Don't Go (1953)
TTITLE13=I Want You To Love Me (1953)
TTITLE14=I'm Your Hoochie Coochie (1954)
TTITLE15=I Just Want To Make Love To Yyou (1954)
TTITLE16=I'm Ready (1954)
EXTD=
EXTT0=
EXTT1=
EXTT2=
EXTT3=
EXTT4=
EXTT5=
EXTT6=
EXTT7=
EXTT8=
EXTT9=
EXTT10=
EXTT11=
EXTT12=
EXTT13=
EXTT14=
EXTT15=
EXTT16=by cml Ledeburgh 2018
PLAYORDER=
